<svg xmlns="http://www.w3.org/2000/svg" viewBox="0 0 1024 1024">
  <path fill="#C71D23" d="M512 510.862222m-510.862222 0a510.862222 510.862222 0 1 0 1021.724444 0 510.862222 510.862222 0 1 0-1021.724444 0Z"/>
  <path fill="#FFFFFF" d="M770.275556 453.973333H480.142222c-13.653333 0-25.031111 11.377778-25.031111 25.031111v62.577778c0 13.653333 11.377778 25.031111 25.031111 25.031111h176.355556c13.653333 0 25.031111 11.377778 25.031111 25.031111v13.653334c0 42.097778-34.133333 75.093333-75.093333 75.093333h-238.933334c-13.653333 0-25.031111-11.377778-25.031111-25.031111v-238.933333c0-42.097778 34.133333-75.093333 75.093333-75.093334h352.711112c13.653333 0 25.031111-11.377778 25.031111-25.031111v-62.577778c0-13.653333-11.377778-25.031111-25.031111-25.031111h-352.711112c-104.675556 0-188.871111 84.195556-188.871111 188.871111v352.711112c0 13.653333 11.377778 25.031111 25.031111 25.031111h372.053334c94.435556 0 170.666667-76.231111 170.666666-170.666667V479.004444c-1.137778-13.653333-12.515556-25.031111-26.168888-25.031111z"/>
</svg>
